<?xml version="1.0" encoding="utf-8"?>
<!-- Svg Vector Icons : http://www.onlinewebfonts.com/icon -->
<!DOCTYPE svg PUBLIC "-//W3C//DTD SVG 1.1//EN" "http://www.w3.org/Graphics/SVG/1.1/DTD/svg11.dtd">
<svg version="1.1" xmlns="http://www.w3.org/2000/svg" xmlns:xlink="http://www.w3.org/1999/xlink" x="0px" y="0px" viewBox="0 0 256 256" enable-background="new 0 0 256 256" xml:space="preserve">
<metadata> Svg Vector Icons : http://www.onlinewebfonts.com/icon </metadata>
<g><g><g><path fill="#000000" d="M160.6,10.5c-1.6,0.7-11,10.9-19.4,21.1C113.9,64.5,95.1,96,85.6,125c-1.6,4.9-2.1,5.9-2.7,5.6c-9.6-4-19.9-2.8-28.2,3.3c-4.2,3-7.1,4.1-11.5,4.1c-4.5,0-7-0.9-12-4.3c-4.5-3.1-8.2-4.6-12.7-5.2c-3.5-0.5-4.2-0.5-5.6,0.2c-2.1,1.1-3.2,3.5-2.5,5.6c0.8,2.4,1.9,3,5.8,3.5c4,0.4,6.3,1.5,12.1,5.2c5.4,3.6,7.9,4.2,15,4.2c7.2,0,9.9-0.8,16.3-5.1c5.6-3.7,8.4-4.6,13.3-4.2c3.8,0.2,6.6,1.4,10.5,4.2c5.1,3.7,10.2,5.4,16.5,5.4c6.6,0,10.3-1.2,17.5-6c3.8-2.4,7.1-3.7,10-3.7c2.1,0,4.3-1,5-2.3c0.7-1.3,0.6-4.1-0.3-5.4c-1.1-1.6-3.4-2.2-6.8-1.8c-4.8,0.6-8.2,1.9-13.5,5.3c-2.8,1.8-5.9,3.5-6.9,3.8c-2.5,0.7-8.4,0.6-10.7-0.2c-2.3-0.8-2.3-0.6,0.7-9.6c10.1-30.4,32.1-65.5,63-100.6l4.7-5.3l3,3.2c5.1,5.5,17,19.9,23.1,28.1c36.2,48.2,52.5,90.7,46.9,122.1c-5,28.1-25.9,51.1-53.3,58.6c-17.2,4.8-35.3,3.1-51.6-4.7c-6-2.8-16.8-10.1-16.8-11.3c0-0.1,1.6-1.3,3.5-2.5c3.8-2.4,7.1-3.7,10-3.7c2.1,0,4.3-1,5-2.3c0.7-1.3,0.6-4.1-0.3-5.4c-2.4-3.6-11.7-2.2-19.5,3c-5.4,3.6-6.2,3.9-9.6,4.6c-2,0.4-3.6,0.4-5.5,0.1c-3.6-0.6-4.6-1-9.2-4.1c-5-3.3-8.3-4.6-13-5.3c-7.1-1-14.3,0.9-20.4,5.4c-4.2,3-7.1,4.1-11.5,4.1c-4.5,0-7-0.9-12-4.3c-4.5-3.1-8.2-4.6-12.7-5.2c-3.5-0.5-4.2-0.5-5.6,0.2c-2.1,1.1-3.2,3.5-2.5,5.6c0.8,2.4,1.9,3,5.8,3.5c4,0.4,6.3,1.5,12.1,5.2c5.4,3.6,7.9,4.2,15,4.2c7.2,0,9.9-0.8,16.3-5.1c5.6-3.7,8.4-4.6,13.3-4.2c3.9,0.2,6.2,1.2,10.9,4.4c5.7,3.8,9.7,5.2,15.8,5.2h3.7l2.6,2.4c6.3,5.9,12.6,10.1,20.5,13.9c41.2,19.8,90.3,3,110.9-37.9c13.5-26.7,11.5-58-6.3-96.5c-11.7-25.3-32-55.1-55.8-82C165.2,10.2,163.7,9.1,160.6,10.5z"/><path fill="#000000" d="M124.3,153c-4.3,0.6-7.5,1.9-12.4,5.1c-5.3,3.5-6.9,4.1-10.8,4.4c-5,0.5-7.2,3-5.6,6.8c1.1,2.5,3,3.2,7.7,2.6c4.7-0.6,8.2-2,13.5-5.5c4.3-2.8,8-4.2,11.4-4.2c3.4,0,7.1,1.4,11.4,4.2c7.5,4.9,13.3,6.5,20.6,5.5c4.7-0.6,7.3-1.7,12.5-5c5.4-3.5,6.8-4.1,10.9-4.4c2.5-0.2,3.6-0.6,4.4-1.4c2.1-1.9,2.1-4.8,0-6.9c-1-1-1.5-1.1-4.5-1.1c-5.4,0-9.3,1.4-16.3,6c-7.7,5-13.8,5-21.4,0c-5.4-3.5-7.2-4.4-10.5-5.2C131.3,152.8,127.9,152.6,124.3,153z"/><path fill="#000000" d="M11.8,153.9c-2.3,2.2-2.4,5.2-0.1,7.1c1,0.8,2.1,1.2,4.4,1.4c3.4,0.3,6.7,1.7,10.2,4.1c6.4,4.6,13.1,6.4,20.1,5.5c4.6-0.6,7.9-1.9,12.3-4.8c5.1-3.3,7.7-4.4,11.4-4.8c4.1-0.4,5.9-1.8,6-4.7c0-1.5-0.2-2.2-1.3-3.3c-1.2-1.3-1.6-1.4-4.6-1.4c-5.5,0-9.4,1.4-15.2,5.3c-5.5,3.7-6.7,4.1-11.8,4.1s-6.2-0.4-12.3-4.4c-5.4-3.6-8.5-4.7-13.8-4.9C13.2,152.9,12.7,153,11.8,153.9z"/><path fill="#000000" d="M11.8,178.6c-1.8,1.5-2.2,3.3-1.3,5.5c0.8,2,2.9,3,6,3c2.9,0,5.4,1,9.5,3.7c5.9,4,11.2,6,16.3,6c4.8,0,7.2-4.5,4.2-7.9c-1.1-1.2-1.7-1.5-4.8-1.8c-4.2-0.5-5.7-1.1-10.1-4.1c-4.5-3-6.7-4.1-10.2-4.9C16.7,177.1,13.4,177.2,11.8,178.6z"/><path fill="#000000" d="M69,178.1c-3.1,1.8-3.1,6.6,0,8.2c0.6,0.3,2.5,0.7,4.3,0.9c3.6,0.4,6,1.4,9.6,4c5.8,4.2,12.2,6,18.7,5.5c5.2-0.4,8.9-1.8,14.5-5.4c2.8-1.8,5.8-3.5,6.7-3.7c2.5-0.7,9.7-0.6,12,0.2c1.1,0.4,3.8,1.9,6,3.4c7.3,4.8,15.1,6.8,18.9,4.9c1.7-0.9,2.3-2,2.3-4.2c0-3-2.3-4.8-6-4.8c-2.9,0-5.7-1.1-9.9-3.9c-7.3-4.8-10.5-5.8-17.6-5.8c-6.8,0-11.3,1.4-17.3,5.5c-4.8,3.2-6.4,3.8-10.7,4.1c-5.1,0.3-7.3-0.5-13.1-4.3c-2.5-1.6-5.8-3.4-7.3-3.9C76.6,177.6,70.5,177.2,69,178.1z"/></g></g></g>
</svg>